<svg xmlns="http://www.w3.org/2000/svg" width="22" height="39" viewBox="0 0 22 39">
    <g fill="#ff3366" fill-rule="evenodd">
        <path d="M19.854 15.788l-.409.682c-.655 1.094-2.115 1.472-3.254.842l-1.013-.56a.946.946 0 0 0-.913.001.873.873 0 0 0-.456.762l.002 1.123a2.231 2.231 0 0 1-.694 1.621 2.416 2.416 0 0 1-1.684.675l-.818.001h-.005c-1.312 0-2.38-1.024-2.383-2.286l-.003-1.123a.873.873 0 0 0-.458-.76.941.941 0 0 0-.914.003l-1.01.564a2.45 2.45 0 0 1-1.808.233 2.359 2.359 0 0 1-1.45-1.063l-.411-.68c-.66-1.093-.273-2.497.863-3.132l1.01-.564a.872.872 0 0 0 .455-.762.873.873 0 0 0-.46-.76l-1.013-.558A2.29 2.29 0 0 1 1.912 8.66a2.199 2.199 0 0 1 .232-1.74l.407-.682a2.357 2.357 0 0 1 1.443-1.072 2.451 2.451 0 0 1 1.81.223l1.04.573c.282.155.63.154.912-.003a.872.872 0 0 0 .455-.76V4.048c0-1.263 1.07-2.29 2.383-2.29h.819c1.314 0 2.383 1.027 2.383 2.29V5.17c0 .314.174.604.457.761a.945.945 0 0 0 .914 0l1.011-.563a2.452 2.452 0 0 1 1.808-.23c.615.158 1.13.537 1.448 1.067l.41.68c.658 1.094.267 2.498-.87 3.13l-1.012.563a.873.873 0 0 0-.456.761c0 .314.175.604.458.76l1.013.56a2.29 2.29 0 0 1 1.112 1.39c.166.59.082 1.208-.235 1.739m2-2.196a4.022 4.022 0 0 0-1.641-2.256c1.756-1.193 2.31-3.506 1.213-5.33l-.41-.68a4.165 4.165 0 0 0-2.558-1.885 4.333 4.333 0 0 0-2.853.236C15.41 1.618 13.605 0 11.413 0h-.819C8.391 0 6.578 1.635 6.4 3.709a4.333 4.333 0 0 0-2.884-.238 4.163 4.163 0 0 0-2.55 1.894l-.406.683a3.885 3.885 0 0 0-.41 3.072c.26.924.84 1.712 1.645 2.253C.04 12.569-.508 14.883.593 16.705l.411.68a4.166 4.166 0 0 0 2.562 1.88 4.331 4.331 0 0 0 2.852-.242c.2 2.056 2.004 3.669 4.192 3.669h.009l.818-.002a4.269 4.269 0 0 0 2.974-1.191 3.953 3.953 0 0 0 1.211-2.494c.563.249 1.16.368 1.75.368 1.459 0 2.879-.728 3.657-2.027l.408-.682a3.884 3.884 0 0 0 .416-3.072"/>
        <path d="M11 13.409c-1.213 0-2.2-.926-2.2-2.063 0-1.138.987-2.063 2.2-2.063s2.2.925 2.2 2.063c0 1.137-.987 2.063-2.2 2.063m0-6.189c-2.426 0-4.4 1.85-4.4 4.126 0 2.275 1.974 4.126 4.4 4.126s4.4-1.851 4.4-4.126c0-2.275-1.974-4.126-4.4-4.126"/>
        <g>
            <path d="M16.27 25.69h.561v.575c0 2.14-1.698 3.88-3.785 3.88h-.562v-.576c0-2.14 1.698-3.88 3.786-3.88zm-5.654 8.341h-.562c-2.087 0-3.785-1.74-3.785-3.88v-.575h.561c2.087 0 3.786 1.74 3.786 3.88v.575zm0-12.13v7.254A5.556 5.556 0 0 0 6.83 27.66H5.334a.946.946 0 0 0-.934.958v1.533c0 3.196 2.536 5.796 5.654 5.796h.562v2.095c0 .529.418.958.934.958s.934-.43.934-.958V32.06h.562c3.118 0 5.654-2.6 5.654-5.795v-1.533a.946.946 0 0 0-.934-.958H16.27a5.556 5.556 0 0 0-3.786 1.494V21.9c0-.859-1.868-.82-1.868 0z"/>
        </g>
    </g>
</svg>